<?xml version="1.0" standalone="no"?>
<!DOCTYPE svg PUBLIC "-//W3C//DTD SVG 20010904//EN"
 "http://www.w3.org/TR/2001/REC-SVG-20010904/DTD/svg10.dtd">
<svg version="1.0" xmlns="http://www.w3.org/2000/svg"
 width="1440.000000pt" height="1440.000000pt" viewBox="0 0 1440.000000 1440.000000"
 preserveAspectRatio="xMidYMid meet">
<metadata>
Created by potrace 1.14, written by Peter Selinger 2001-2017
</metadata>
<g transform="translate(0.000000,1440.000000) scale(0.100000,-0.100000)"
fill="#000000" stroke="none">
<path d="M4038 12583 c-8 -10 -52 -83 -98 -163 -104 -182 -192 -334 -360 -625
-73 -126 -165 -286 -205 -355 -40 -69 -116 -201 -170 -295 -54 -93 -113 -195
-130 -225 -63 -110 -229 -397 -283 -490 -62 -108 -92 -159 -482 -835 -155
-269 -340 -589 -410 -710 -114 -196 -214 -371 -430 -745 -36 -63 -179 -311
-318 -551 -139 -241 -252 -445 -252 -455 0 -11 11 -37 23 -59 88 -151 191
-328 252 -435 119 -207 322 -559 453 -785 41 -71 107 -186 147 -255 39 -69
107 -186 150 -260 43 -74 103 -178 133 -230 30 -52 88 -152 128 -222 41 -71
107 -185 147 -255 129 -224 227 -394 305 -528 94 -163 202 -350 277 -480 32
-55 65 -113 75 -130 10 -16 43 -75 75 -130 32 -55 91 -157 131 -228 41 -70
108 -186 149 -257 41 -72 109 -188 150 -260 41 -71 108 -187 149 -257 40 -71
98 -171 128 -223 30 -52 90 -156 132 -230 43 -74 94 -161 113 -193 l34 -57
3155 0 3154 0 27 43 c15 23 60 99 100 169 70 124 132 231 298 518 89 154 196
339 300 520 40 69 97 168 127 220 31 52 91 156 133 230 160 277 230 398 302
523 40 70 106 184 147 255 40 70 107 186 148 257 41 72 99 171 128 220 28 50
62 108 75 130 46 81 138 241 155 270 17 29 52 89 202 350 177 306 322 557 455
788 40 70 106 184 146 255 41 70 149 257 241 415 92 159 170 295 172 302 6 14
-13 51 -181 340 -54 94 -123 213 -153 265 -30 52 -88 152 -128 223 -41 70
-108 185 -149 257 -41 72 -108 187 -149 258 -40 70 -98 170 -128 222 -30 52
-90 156 -133 230 -43 74 -111 192 -151 263 -41 70 -107 184 -148 255 -40 70
-108 188 -151 262 -43 74 -111 192 -152 263 -162 282 -224 389 -310 537 -49
85 -143 247 -208 360 -65 113 -152 264 -193 335 -42 72 -108 186 -147 255
-184 320 -492 854 -540 935 -29 50 -68 118 -87 152 l-33 63 -3161 0 c-2998 0
-3162 -1 -3176 -17z m45 -20 c13 -25 100 -178 147 -258 10 -16 51 -88 92 -160
102 -176 170 -295 263 -455 43 -74 112 -193 153 -265 218 -379 251 -435 446
-772 40 -71 99 -173 131 -228 32 -55 65 -113 75 -130 10 -16 44 -75 75 -130
78 -136 87 -152 124 -213 17 -30 37 -68 45 -85 7 -18 190 -338 406 -712 216
-374 445 -770 508 -880 63 -110 155 -270 205 -355 119 -206 395 -684 425 -737
l24 -43 -3149 0 -3148 0 35 21 c31 19 134 79 460 267 52 30 152 88 223 128 70
41 184 107 255 148 70 40 170 98 222 128 142 82 344 199 493 285 72 42 188
109 257 148 69 39 202 116 295 170 238 138 494 285 745 430 74 42 141 82 148
87 9 8 12 385 12 1824 0 1107 4 1814 9 1814 5 0 16 -12 24 -27z m4792 -2750
c11 -7 58 -34 104 -60 46 -27 103 -59 126 -73 24 -14 83 -48 132 -76 48 -28
148 -85 221 -127 72 -43 191 -111 262 -152 72 -41 190 -109 263 -152 72 -42
187 -107 255 -146 l122 -69 0 -1818 0 -1818 -102 -60 c-134 -78 -272 -158
-433 -249 -116 -67 -266 -153 -350 -203 -16 -10 -75 -43 -130 -75 -55 -31
-116 -67 -135 -78 -19 -11 -75 -43 -124 -71 -48 -28 -108 -62 -131 -76 -23
-14 -80 -47 -126 -73 -46 -26 -99 -57 -117 -67 -18 -11 -81 -48 -140 -81 -136
-79 -441 -254 -755 -435 -70 -41 -187 -108 -260 -150 -245 -142 -322 -186
-352 -204 -16 -10 -75 -43 -130 -75 -55 -31 -116 -67 -135 -78 -38 -22 -128
-74 -340 -196 -74 -43 -196 -113 -270 -156 -74 -43 -175 -101 -223 -129 -49
-28 -108 -62 -132 -76 -23 -14 -80 -47 -126 -73 -46 -26 -100 -57 -119 -69
-19 -11 -84 -49 -145 -83 -60 -35 -166 -96 -235 -136 -69 -39 -183 -106 -255
-147 -71 -41 -146 -84 -165 -95 -19 -11 -73 -42 -120 -69 -47 -27 -146 -85
-220 -128 -74 -43 -173 -100 -220 -126 -75 -41 -131 -74 -270 -158 l-35 -21
20 30 c10 17 28 46 40 66 35 64 113 199 200 349 46 80 116 201 155 270 40 69
107 186 150 260 43 74 108 187 145 250 36 63 104 180 150 260 46 80 112 195
147 255 34 61 67 118 73 127 5 9 33 56 60 104 28 48 61 106 75 130 42 72 132
227 152 264 11 19 45 79 76 132 32 53 94 161 139 240 44 79 114 199 154 268
40 69 82 141 93 161 44 78 241 418 352 609 40 69 101 175 135 235 35 61 68
118 74 127 5 10 39 68 75 130 35 62 69 121 75 130 5 9 33 56 60 104 28 48 61
106 75 129 14 23 49 85 78 136 30 52 89 155 132 229 121 209 223 387 245 428
46 85 99 180 225 397 73 127 165 286 205 355 472 818 645 1118 684 1185 26 44
143 247 261 451 l214 372 36 -22 c20 -11 45 -27 55 -33z"/>
</g>
</svg>
